<?xml version="1.0" standalone="no"?>
<!DOCTYPE svg PUBLIC "-//W3C//DTD SVG 20010904//EN"
 "http://www.w3.org/TR/2001/REC-SVG-20010904/DTD/svg10.dtd">
<svg version="1.0" xmlns="http://www.w3.org/2000/svg"
 width="2048.000000pt" height="2048.000000pt" viewBox="0 0 2048.000000 2048.000000"
 preserveAspectRatio="xMidYMid meet">

<g transform="translate(0.000000,2048.000000) scale(0.100000,-0.100000)"
fill="#000000" stroke="none">
<path d="M7940 10411 c-173 -57 -263 -108 -494 -280 -72 -54 -163 -118 -202
-143 -74 -48 -109 -91 -121 -149 -6 -33 -6 -34 14 -16 11 9 23 17 27 17 4 0
20 9 34 21 16 12 34 18 48 15 13 -4 39 4 67 19 62 35 137 35 205 -1 15 -8 33
-14 40 -14 7 0 15 -7 18 -15 4 -8 10 -15 16 -15 12 0 83 -49 124 -87 18 -15
58 -49 90 -75 212 -168 326 -258 330 -258 3 0 22 -15 42 -34 20 -19 58 -50 84
-70 25 -20 48 -39 50 -43 5 -14 91 -73 105 -73 13 0 110 -38 165 -65 15 -7 29
-10 33 -7 18 18 167 54 275 66 185 21 465 28 546 14 l41 -8 -105 110 c-57 60
-108 107 -113 104 -5 -3 -8 0 -7 8 2 7 -4 12 -12 10 -8 -2 -12 0 -8 3 17 18
-276 307 -553 545 -48 41 -117 112 -153 157 -69 86 -156 162 -265 232 -109 70
-182 77 -321 32z m578 -323 c7 -7 12 -18 12 -26 0 -8 35 -53 78 -101 177 -195
342 -394 370 -447 10 -18 8 -23 -15 -33 -22 -10 -31 -8 -65 14 -22 15 -36 20
-31 13 22 -36 66 -98 69 -98 12 0 164 84 164 90 0 4 -18 32 -40 61 -37 49 -47
69 -35 69 11 0 135 -164 128 -170 -4 -4 -26 -13 -48 -20 -47 -15 -124 -56
-217 -117 -63 -41 -88 -47 -88 -21 0 5 11 19 25 30 35 27 32 47 -18 120 -109
162 -99 154 -362 288 -199 102 -249 123 -290 125 -28 1 -53 3 -57 4 -21 3 -2
24 58 67 52 37 70 45 83 37 9 -6 16 -19 16 -29 0 -14 38 -39 157 -99 153 -79
156 -80 128 -45 -67 82 -86 101 -108 103 -13 1 -30 10 -40 20 -16 18 -16 20 2
33 11 7 39 21 63 30 50 19 77 7 67 -30 -6 -24 3 -36 139 -193 56 -66 97 -102
152 -136 41 -25 75 -43 75 -41 0 6 -274 335 -331 397 -26 29 -60 53 -84 62
-46 15 -58 41 -23 48 42 8 54 7 66 -5z"/>
<path d="M4357 9668 c-77 -117 -109 -205 -170 -468 -76 -327 -100 -444 -99
-478 0 -18 -2 -31 -5 -28 -5 5 -106 -289 -177 -512 -30 -94 -42 -178 -32 -218
10 -37 20 -21 40 61 23 92 40 127 77 154 l31 23 47 -45 c98 -95 211 -176 386
-277 132 -76 169 -90 234 -90 83 0 143 28 224 105 58 56 231 194 292 234 28
18 69 37 93 44 43 11 56 26 25 28 -10 1 -21 1 -25 0 -5 0 -8 3 -8 8 0 5 -15
14 -32 21 -66 25 -96 40 -108 55 -7 8 -16 15 -20 15 -10 0 -130 120 -130 129
0 4 -8 16 -18 27 -28 29 -132 189 -132 201 0 6 -4 13 -8 15 -4 2 -23 39 -41
83 -18 44 -39 94 -46 110 -7 17 -33 100 -59 185 -26 85 -51 163 -56 172 -6 10
-10 25 -10 33 0 8 -4 23 -9 33 -5 9 -20 51 -32 92 -13 41 -42 111 -65 154 -43
80 -114 186 -126 186 -3 0 -22 -24 -41 -52z"/>
<path d="M8976 8932 c5 -5 28 -16 50 -26 41 -18 42 -18 90 8 l49 25 -99 1
c-55 0 -96 -4 -90 -8z"/>
<path d="M8266 8903 c-4 -5 -22 -8 -39 -8 -20 0 -31 -5 -29 -13 1 -6 -6 -12
-15 -12 -21 0 -135 -39 -147 -51 -6 -5 -19 -9 -31 -9 -12 0 -25 -4 -30 -9 -6
-5 -38 -19 -72 -31 -35 -13 -63 -27 -63 -31 0 -5 -8 -9 -17 -9 -10 0 -60 -16
-111 -35 -51 -19 -101 -35 -112 -35 -11 0 -20 -4 -20 -8 0 -4 -62 -32 -137
-62 -154 -60 -163 -65 -163 -90 0 -42 84 -107 360 -280 47 -29 111 -71 144
-92 81 -53 116 -52 273 12 68 28 135 50 148 50 16 0 87 -42 183 -107 445 -302
719 -481 937 -608 178 -104 306 -183 326 -201 37 -33 52 -21 383 281 60 55
111 105 113 110 1 6 -14 30 -35 53 l-37 44 -115 -78 c-128 -86 -176 -105 -247
-98 -36 3 -52 10 -66 29 -10 14 -24 25 -30 25 -7 0 -20 12 -30 26 -33 44 -12
166 34 206 11 9 42 37 69 61 l50 45 -38 25 c-20 14 -52 39 -70 56 -18 17 -37
31 -42 31 -5 0 -16 7 -25 16 -14 15 -22 9 -98 -64 -133 -130 -167 -152 -234
-152 l-36 0 6 38 c5 30 3 40 -12 49 -16 10 -20 9 -24 -8 -3 -11 -14 -19 -26
-19 -47 0 -67 118 -35 209 8 25 38 74 67 110 28 35 47 66 42 68 -6 2 -35 19
-65 37 -41 26 -58 32 -72 25 -10 -5 -18 -14 -18 -19 0 -12 -101 -108 -131
-125 -73 -41 -115 -55 -165 -55 -36 0 -54 4 -54 13 0 6 -15 19 -33 28 -45 22
-56 51 -47 134 8 83 35 145 87 201 l39 42 -60 41 -59 40 -49 -34 c-26 -19 -50
-35 -53 -35 -2 0 -23 -13 -47 -29 -70 -46 -246 -109 -268 -96 -6 3 -10 13 -10
22 0 12 -3 13 -15 3 -18 -15 -35 0 -53 51 -22 64 15 168 95 266 25 30 43 57
40 59 -2 2 -7 1 -11 -3z m929 -581 c-3 -3 -11 0 -18 7 -9 10 -8 11 6 5 10 -3
15 -9 12 -12z m416 -269 c13 -17 13 -17 -6 -3 -11 8 -22 16 -24 17 -2 2 0 3 6
3 6 0 17 -8 24 -17z"/>
<path d="M8220 8584 c0 -8 5 -12 10 -9 6 4 8 11 5 16 -9 14 -15 11 -15 -7z"/>
<path d="M7180 8529 c0 -5 5 -7 10 -4 6 3 10 8 10 11 0 2 -4 4 -10 4 -5 0 -10
-5 -10 -11z"/>
<path d="M7110 8479 c0 -5 5 -7 10 -4 6 3 10 8 10 11 0 2 -4 4 -10 4 -5 0 -10
-5 -10 -11z"/>
<path d="M11060 8310 c14 -10 27 -16 30 -13 6 6 -30 33 -44 33 -6 0 0 -9 14
-20z"/>
<path d="M5858 8313 c7 -3 16 -2 19 1 4 3 -2 6 -13 5 -11 0 -14 -3 -6 -6z"/>
<path d="M5758 8293 c7 -3 16 -2 19 1 4 3 -2 6 -13 5 -11 0 -14 -3 -6 -6z"/>
<path d="M11090 8251 c0 -6 4 -13 10 -16 6 -3 7 1 4 9 -7 18 -14 21 -14 7z"/>
<path d="M9655 8090 c3 -5 8 -10 11 -10 2 0 4 5 4 10 0 6 -5 10 -11 10 -5 0
-7 -4 -4 -10z"/>
<path d="M9730 8040 c0 -5 5 -10 11 -10 5 0 7 5 4 10 -3 6 -8 10 -11 10 -2 0
-4 -4 -4 -10z"/>
<path d="M7790 8026 c0 -2 7 -7 16 -10 8 -3 12 -2 9 4 -6 10 -25 14 -25 6z"/>
<path d="M10544 7991 c4 -6 15 -15 26 -21 13 -7 19 -6 24 6 3 8 2 12 -4 9 -5
-3 -19 -1 -31 6 -15 7 -19 8 -15 0z"/>
<path d="M7880 7980 c0 -5 5 -10 11 -10 5 0 7 5 4 10 -3 6 -8 10 -11 10 -2 0
-4 -4 -4 -10z"/>
<path d="M10964 7916 c-2 -6 -6 -25 -7 -42 l-4 -30 59 34 c32 19 57 36 56 37
-2 1 -25 5 -51 8 -31 3 -50 1 -53 -7z"/>
<path d="M11515 7849 c0 -25 3 -27 25 -22 49 11 50 24 3 41 -26 9 -28 7 -28
-19z"/>
<path d="M12059 7836 c23 -14 47 -26 53 -26 5 0 6 -5 2 -11 -4 -7 -1 -10 6 -7
29 9 18 25 -32 43 -76 29 -77 29 -29 1z"/>
<path d="M6710 7732 c0 -4 5 -13 12 -20 18 -18 28 -15 28 8 0 13 -7 20 -20 20
-11 0 -20 -4 -20 -8z"/>
<path d="M12470 7726 c0 -2 27 -20 60 -39 75 -45 79 -40 5 8 -53 34 -65 39
-65 31z"/>
<path d="M12400 7631 c0 -5 10 -11 23 -15 36 -9 42 -7 21 9 -21 16 -44 19 -44
6z"/>
<path d="M6980 7616 c0 -17 42 -16 48 2 2 7 -6 12 -22 12 -15 0 -26 -6 -26
-14z"/>
<path d="M11108 7613 c7 -3 16 -2 19 1 4 3 -2 6 -13 5 -11 0 -14 -3 -6 -6z"/>
<path d="M11118 7571 c-27 -10 -58 -27 -71 -39 -13 -12 -26 -22 -30 -22 -12 0
-147 -94 -147 -103 0 -5 13 2 29 15 16 12 48 34 72 48 23 14 54 35 69 47 36
30 137 64 169 57 20 -4 23 -3 11 5 -20 15 -46 12 -102 -8z"/>
<path d="M11000 7570 c-9 -6 -10 -10 -3 -10 6 0 15 5 18 10 8 12 4 12 -15 0z"/>
<path d="M6540 7541 c0 -12 29 -35 36 -28 11 10 -5 37 -21 37 -8 0 -15 -4 -15
-9z"/>
<path d="M7246 7523 c-3 -3 -6 -11 -6 -18 0 -13 37 -17 45 -5 7 11 -30 32 -39
23z"/>
<path d="M10819 7443 c-13 -17 -13 -17 6 -3 11 8 22 16 24 17 2 2 0 3 -6 3 -6
0 -17 -8 -24 -17z"/>
<path d="M6806 7431 c-9 -15 23 -36 36 -23 5 5 7 15 4 21 -9 13 -33 14 -40 2z"/>
<path d="M7508 7404 c-11 -10 3 -34 19 -34 8 0 13 7 11 17 -3 18 -20 27 -30
17z"/>
<path d="M11630 7402 c38 -17 116 -67 128 -80 6 -9 12 -11 12 -5 0 14 -48 53
-65 53 -6 0 -20 9 -30 20 -10 11 -28 20 -39 19 -16 0 -17 -2 -6 -7z"/>
<path d="M10816 7375 c-16 -14 -27 -27 -25 -29 2 -2 20 9 39 25 19 16 30 29
25 29 -6 0 -23 -11 -39 -25z"/>
<path d="M12750 7368 c-19 -10 -30 -18 -23 -18 7 0 22 -10 34 -22 l23 -23 -17
27 c-26 41 5 46 54 7 22 -17 42 -29 44 -27 3 2 -15 20 -38 39 l-42 34 -35 -17z"/>
<path d="M10720 7365 c-8 -10 -32 -29 -53 -42 -21 -13 -46 -31 -55 -41 -10 -9
-43 -37 -73 -61 -106 -87 -322 -300 -504 -497 -244 -263 -446 -466 -535 -538
-126 -101 -216 -135 -370 -141 -110 -4 -235 12 -265 35 -5 4 -36 15 -69 24
-32 10 -75 26 -95 37 -19 10 -39 19 -43 19 -4 0 -44 18 -90 39 -46 21 -103 48
-128 59 -54 24 -190 86 -245 112 -200 94 -265 124 -304 142 -58 25 -551 266
-571 279 -8 5 -28 15 -45 22 -16 8 -55 25 -85 39 -30 14 -84 38 -120 53 -36
15 -87 38 -115 50 -103 46 -238 75 -344 75 -145 0 -280 -69 -791 -407 -179
-119 -329 -219 -333 -223 -14 -13 133 -75 593 -251 118 -45 262 -102 320 -126
58 -25 148 -63 200 -85 52 -22 184 -84 293 -138 l198 -99 44 31 c68 48 166 49
300 2 97 -34 190 -145 228 -272 l22 -74 118 -59 c64 -33 117 -56 117 -52 -1 5
-7 19 -15 33 -21 37 -19 128 5 167 45 74 136 90 212 37 62 -42 80 -84 72 -159
-8 -72 -23 -105 -65 -138 l-31 -24 34 -13 c81 -32 378 -180 378 -189 0 -5 -8
-7 -17 -5 -10 2 -107 27 -216 54 -109 28 -209 50 -222 50 -13 0 -29 8 -34 18
-6 9 -11 12 -11 5 0 -7 -6 -10 -12 -8 -7 2 -31 6 -53 9 -22 2 -62 10 -89 16
-28 6 -226 40 -440 75 -215 35 -412 68 -439 73 -40 7 -50 6 -63 -9 -15 -17
-14 -22 14 -76 16 -32 33 -72 36 -89 l7 -31 157 -27 c431 -76 908 -169 1177
-231 292 -66 338 -77 805 -191 612 -148 714 -172 1095 -259 154 -35 290 -67
302 -71 17 -5 25 0 38 25 27 53 215 234 275 265 30 16 76 48 101 72 84 77 138
93 231 70 36 -10 87 -33 119 -54 53 -37 61 -39 200 -55 140 -17 239 -22 239
-12 0 4 -13 38 -31 80 -28 67 -137 406 -176 550 -41 151 -46 181 -45 270 1
172 42 315 156 540 55 107 73 141 129 235 15 25 41 70 57 100 40 72 94 155
185 285 149 210 213 332 194 368 -6 10 -8 24 -6 31 3 7 -4 23 -14 37 -10 13
-19 19 -19 12 0 -6 4 -15 10 -18 10 -6 7 -128 -5 -157 -7 -18 -70 -36 -83 -24
-3 4 -1 15 6 24 7 9 22 36 33 59 15 33 17 47 9 63 -14 27 -21 25 -11 -2 6 -17
2 -35 -15 -68 -39 -75 -49 -84 -76 -70 -13 7 -32 21 -43 31 -20 18 -22 18 -94
-11 -40 -17 -84 -30 -96 -30 -13 0 -27 -4 -30 -10 -3 -5 -27 -10 -53 -10 -45
0 -49 2 -75 42 -15 23 -27 52 -27 65 0 27 2 27 -43 8 -77 -32 -220 -23 -347
23 -30 11 -84 30 -120 42 -36 13 -90 39 -120 59 -64 42 -190 165 -190 186 0 8
-4 15 -9 15 -5 0 -13 12 -18 26 -8 24 -10 25 -23 9z m-4204 -392 c9 -14 10
-21 1 -32 -9 -11 -9 -13 0 -8 20 12 21 -5 8 -101 -14 -97 -22 -114 -104 -225
-27 -36 -49 -52 -100 -74 -60 -25 -78 -27 -186 -28 -105 0 -127 3 -172 24 -85
38 -85 42 12 102 47 30 85 57 85 61 0 8 -131 -73 -162 -99 -19 -17 -61 -8 -55
10 8 26 289 218 422 289 75 40 196 86 213 81 6 -3 12 0 12 6 0 16 11 13 26 -6z
m443 -68 c62 -25 119 -45 127 -45 7 0 55 -22 106 -48 51 -26 131 -65 178 -87
88 -41 241 -123 250 -134 5 -6 133 -66 208 -97 35 -14 41 -21 36 -38 -4 -12
-7 -22 -9 -24 -1 -1 -28 9 -60 24 -41 17 -55 21 -46 10 8 -9 18 -16 23 -16 5
0 25 -7 44 -15 l36 -15 -49 -57 c-26 -31 -75 -84 -109 -118 l-60 -62 -105 -14
c-138 -19 -305 -18 -341 1 -161 86 -224 146 -281 264 -86 178 -121 327 -98
414 11 39 14 42 44 40 17 -2 47 -11 67 -20 19 -10 41 -18 50 -18 8 0 29 -9 45
-20 17 -11 37 -20 46 -20 9 0 28 -9 42 -20 14 -11 31 -20 39 -20 8 0 29 -11
48 -25 19 -14 42 -25 51 -25 10 0 30 -6 46 -14 15 -8 39 -19 53 -26 14 -6 48
-24 75 -40 28 -16 73 -41 100 -54 28 -14 57 -30 65 -35 40 -26 141 -73 146
-68 3 3 -32 23 -78 46 -46 23 -128 67 -183 96 -125 68 -224 115 -240 115 -7 0
-23 9 -37 19 -13 11 -36 23 -51 26 -14 4 -31 13 -38 21 -6 8 -18 14 -26 14 -7
0 -31 9 -52 20 -46 23 -114 49 -156 59 -21 4 -31 14 -33 29 -2 12 1 22 5 22 5
0 60 -20 122 -45z m3531 -30 c25 -19 66 -49 93 -67 26 -18 47 -37 47 -43 0 -6
-45 -58 -101 -115 -144 -150 -153 -160 -159 -160 -17 0 -117 69 -134 93 -32
43 -27 128 10 198 24 43 42 62 97 95 37 23 76 40 85 37 9 -2 37 -20 62 -38z
m43 31 c49 -20 139 -131 93 -113 -27 10 -154 112 -149 120 6 10 19 9 56 -7z
m477 -81 c111 -46 279 -139 308 -171 12 -14 22 -36 22 -49 0 -23 0 -23 29 6
16 16 34 29 40 29 11 0 3 -70 -10 -84 -5 -6 -9 -19 -9 -30 1 -30 29 38 35 83
6 47 27 61 89 61 131 -1 225 -109 196 -222 -15 -57 -73 -144 -108 -162 -27
-14 -35 -13 -123 20 -121 45 -161 66 -154 81 2 7 -2 13 -10 13 -11 0 -15 12
-15 43 l-1 42 -32 -58 c-18 -32 -73 -129 -123 -215 -84 -143 -90 -158 -73
-166 24 -11 24 -19 0 -40 -11 -10 -25 -32 -32 -49 -7 -18 -16 -34 -21 -37 -4
-3 -18 -24 -30 -46 -39 -67 -62 -105 -85 -138 -12 -17 -29 -47 -38 -66 -9 -19
-24 -44 -34 -55 -10 -11 -22 -31 -26 -44 -4 -12 -18 -39 -31 -58 -13 -19 -26
-44 -30 -56 -3 -12 -15 -32 -26 -43 -11 -12 -27 -35 -36 -51 -73 -128 -73
-128 -218 -92 -65 17 -126 37 -135 45 -8 8 -25 14 -36 14 -11 0 -35 10 -53 23
-35 23 -77 83 -66 94 3 3 34 -8 68 -24 93 -46 197 -89 245 -103 36 -11 47 -10
77 4 20 9 36 19 36 21 0 6 -32 -6 -47 -17 -20 -16 -127 18 -208 64 -11 7 -51
27 -90 46 -38 19 -72 37 -75 41 -3 4 -68 35 -145 70 -172 77 -183 84 -200 125
-30 72 -33 70 409 541 516 551 611 644 666 644 8 1 53 -15 100 -34z m-370
-117 c0 -7 -5 -29 -10 -49 -12 -44 -137 -169 -169 -169 -12 0 -24 0 -28 -1
-21 -2 -10 23 24 58 21 22 66 69 101 106 62 66 82 79 82 55z m-772 -226 c5
-31 -248 -317 -343 -388 -139 -104 -328 -154 -506 -132 -44 5 -140 29 -212 53
-115 37 -135 47 -154 75 -42 60 -31 63 67 20 220 -96 394 -123 526 -81 151 50
230 106 434 311 91 92 170 166 175 165 6 -1 11 -11 13 -23z m-8 -81 c0 -36
-29 -156 -53 -222 -36 -100 -229 -349 -270 -349 -4 0 -27 -15 -52 -34 -63 -49
-142 -75 -245 -83 -112 -8 -154 3 -306 77 -98 48 -131 69 -168 111 -25 28 -46
56 -46 63 0 6 -7 23 -14 39 -20 36 -14 36 136 -14 107 -36 137 -42 228 -44 98
-4 139 2 262 33 45 12 104 42 176 89 54 36 291 277 320 326 19 32 32 35 32 8z
m-3262 -20 c47 -24 70 -50 88 -98 17 -49 18 -145 0 -186 -17 -40 -99 -117
-125 -117 -33 0 -129 40 -162 67 -16 14 -36 37 -43 52 -19 36 -29 112 -21 151
8 36 64 104 110 132 39 23 106 23 153 -1z m1590 -51 c41 -14 69 -32 101 -67
43 -47 42 -69 -1 -39 -12 9 -32 16 -43 16 -12 0 -27 6 -35 13 -12 10 -12 9 -2
-5 7 -9 25 -19 40 -22 15 -4 42 -14 60 -24 28 -14 32 -21 32 -57 -1 -81 -64
-166 -161 -216 -38 -19 -47 -20 -83 -9 -74 22 -137 90 -162 176 -13 46 -13 59
1 121 12 52 24 78 45 98 l29 28 48 -23 c26 -12 55 -28 63 -35 8 -8 29 -17 45
-20 26 -6 23 -3 -15 19 -25 14 -60 33 -77 41 -18 8 -33 17 -33 20 0 13 97 3
148 -15z m3205 -4 c31 -13 60 -26 64 -30 3 -3 14 -6 23 -6 9 0 25 -7 36 -16
18 -14 14 -15 -50 -9 -73 6 -97 15 -133 48 -47 43 -24 48 60 13z m-217 -327
c83 -50 165 -276 149 -408 -19 -150 -122 -319 -255 -421 -99 -74 -148 -87
-370 -97 -197 -8 -302 24 -402 123 -44 43 -87 118 -75 130 3 3 38 -6 77 -21
69 -26 158 -52 213 -60 15 -3 36 -9 47 -15 13 -7 21 -7 25 1 4 5 17 14 30 19
26 10 140 191 195 310 12 24 25 47 29 50 5 3 18 23 30 45 12 22 36 63 54 91
18 28 47 77 65 108 19 31 38 59 43 62 5 3 15 20 23 38 32 77 55 85 122 45z
m-1272 -108 c16 -6 14 -12 -23 -55 -77 -89 -88 -134 -46 -184 14 -17 46 -42
70 -57 25 -14 45 -28 45 -30 0 -3 -11 -12 -25 -21 -23 -15 -27 -14 -80 16 -31
18 -60 43 -65 55 -5 13 -13 26 -18 29 -5 3 -13 22 -16 41 -7 38 2 62 43 111
14 17 39 48 54 68 29 38 31 39 61 27z m-64 -9 c0 -5 -14 -21 -31 -38 -17 -16
-43 -52 -59 -79 -27 -47 -28 -54 -17 -85 24 -68 47 -98 92 -124 25 -15 45 -31
45 -36 0 -17 -76 -11 -122 9 -61 26 -89 61 -96 116 -5 52 14 96 76 174 39 47
112 89 112 63z m-917 -491 c18 -16 46 -54 63 -83 25 -46 29 -63 29 -128 -1
-129 -33 -208 -99 -250 l-34 -20 -99 21 c-106 23 -129 37 -168 104 -36 62 -40
104 -16 183 26 87 55 129 115 170 42 28 57 32 112 32 56 0 67 -3 97 -29z m832
-221 c34 -13 81 -68 116 -136 27 -54 33 -79 37 -148 5 -88 -14 -172 -44 -197
-16 -13 -15 -13 -349 66 -99 24 -197 47 -218 50 -21 4 -41 14 -44 22 -12 31
16 137 48 183 64 91 119 138 198 167 37 14 214 9 256 -7z m588 -500 c24 -19
65 -105 55 -115 -4 -5 -228 44 -237 52 -10 8 55 64 84 72 48 14 71 12 98 -9z"/>
<path d="M6385 6886 c-55 -29 -134 -72 -175 -98 -41 -25 -90 -53 -108 -62 -19
-10 -31 -20 -28 -23 3 -3 38 14 78 38 92 55 131 77 243 135 97 50 101 52 94
58 -2 2 -49 -20 -104 -48z"/>
<path d="M11350 6458 c-11 -18 -20 -36 -20 -40 0 -17 11 -6 30 32 25 48 18 53
-10 8z"/>
<path d="M10545 6353 c10 -26 11 -29 2 -126 -10 -105 -25 -141 -79 -184 -36
-29 -45 -32 -81 -26 l-42 6 16 -23 c8 -12 80 -57 160 -98 l145 -76 47 32 c48
34 61 62 29 62 -10 0 -27 -7 -38 -15 -10 -8 -29 -15 -42 -15 -26 0 -82 26 -82
39 0 4 42 38 93 75 50 37 112 82 137 101 25 19 58 39 74 43 44 12 42 27 -5 55
-47 29 -73 26 -65 -7 6 -25 1 -30 -118 -118 -74 -56 -81 -59 -84 -39 -6 35 94
118 148 123 51 5 44 27 -20 59 -65 33 -80 35 -80 10 0 -10 -7 -24 -15 -31 -26
-21 -20 55 6 79 27 25 19 37 -46 67 -64 29 -69 29 -60 7z"/>
<path d="M10734 5548 c-4 -7 -14 -24 -22 -38 -14 -24 -13 -24 3 -5 20 24 37
55 31 55 -3 0 -8 -6 -12 -12z"/>
<path d="M10680 5460 c-6 -11 -8 -20 -6 -20 3 0 10 9 16 20 6 11 8 20 6 20 -3
0 -10 -9 -16 -20z"/>
<path d="M7072 7313 c4 -22 38 -30 38 -10 0 8 -7 18 -16 21 -23 9 -26 8 -22
-11z"/>
<path d="M12658 7323 c7 -3 16 -2 19 1 4 3 -2 6 -13 5 -11 0 -14 -3 -6 -6z"/>
<path d="M7770 7281 c0 -22 26 -36 33 -18 6 18 -3 37 -19 37 -8 0 -14 -9 -14
-19z"/>
<path d="M12825 7289 c4 -6 9 -8 12 -5 3 3 14 -6 25 -19 11 -14 24 -25 29 -25
6 0 -3 14 -19 30 -29 29 -60 42 -47 19z"/>
<path d="M12892 7273 c8 -10 30 -50 49 -90 20 -43 40 -72 49 -72 10 1 11 2 3
6 -7 2 -13 12 -13 20 0 25 -68 140 -87 147 -15 6 -16 5 -1 -11z"/>
<path d="M12438 7247 c-15 -6 -30 -17 -32 -24 -4 -10 0 -10 22 2 62 33 67 45
10 22z"/>
<path d="M7330 7201 c0 -11 5 -23 11 -27 16 -9 30 18 17 33 -15 19 -28 16 -28
-6z"/>
<path d="M8030 7165 c0 -18 24 -30 39 -21 16 10 1 36 -20 36 -10 0 -19 -7 -19
-15z"/>
<path d="M7587 7094 c-3 -4 -2 -16 4 -26 13 -24 35 -9 26 16 -7 17 -19 21 -30
10z"/>
<path d="M8287 7056 c-3 -8 0 -20 8 -26 11 -9 16 -7 24 8 6 11 7 22 4 26 -11
11 -31 6 -36 -8z"/>
<path d="M7850 6960 c0 -19 20 -27 33 -13 8 7 -11 33 -24 33 -5 0 -9 -9 -9
-20z"/>
<path d="M8544 6947 c-7 -20 3 -37 22 -37 18 0 18 24 -1 40 -12 10 -16 9 -21
-3z"/>
<path d="M8105 6860 c-8 -13 6 -41 19 -37 17 6 19 34 2 40 -9 4 -18 2 -21 -3z"/>
<path d="M8800 6821 c0 -11 4 -22 9 -25 12 -8 34 21 26 34 -11 17 -35 11 -35
-9z"/>
<path d="M8362 6729 c1 -13 8 -23 13 -21 15 3 12 35 -3 40 -9 3 -13 -3 -10
-19z"/>
<path d="M9054 6715 c-4 -9 -2 -21 3 -26 14 -14 45 1 41 20 -4 22 -37 26 -44
6z"/>
<path d="M8617 6634 c-4 -4 -7 -16 -7 -26 0 -20 25 -25 36 -7 8 13 -19 43 -29
33z"/>
<path d="M8864 6517 c-3 -9 -3 -24 0 -33 5 -14 8 -14 22 1 16 15 16 18 1 32
-15 15 -17 15 -23 0z"/>
<path d="M13285 6320 c4 -6 11 -8 16 -5 14 9 11 15 -7 15 -8 0 -12 -5 -9 -10z"/>
<path d="M13600 6301 c0 -5 5 -13 10 -16 6 -3 10 -2 10 4 0 5 -4 13 -10 16 -5
3 -10 2 -10 -4z"/>
<path d="M13915 6270 c3 -5 10 -10 16 -10 5 0 9 5 9 10 0 6 -7 10 -16 10 -8 0
-12 -4 -9 -10z"/>
<path d="M12970 6171 c0 -5 5 -13 10 -16 6 -3 10 -2 10 4 0 5 -4 13 -10 16 -5
3 -10 2 -10 -4z"/>
<path d="M16110 6175 c0 -2 23 -17 51 -35 62 -38 99 -76 99 -103 0 -19 -47
-71 -105 -115 -23 -17 -24 -20 -6 -11 24 11 41 0 41 -26 -1 -17 -26 -45 -42
-45 -8 0 -18 -4 -24 -9 -5 -5 -32 -18 -60 -29 -47 -19 -52 -19 -77 -4 -15 9
-27 20 -27 24 0 4 -30 -4 -67 -18 -132 -50 -309 -84 -618 -118 -66 -8 -100
-14 -75 -14 25 0 72 3 105 7 75 10 85 5 43 -24 -37 -25 -101 -41 -201 -50 -58
-6 -72 -4 -103 15 -19 13 -32 26 -27 31 4 4 35 10 68 12 33 2 20 3 -30 1 -49
-2 -153 -8 -230 -13 -77 -5 -534 -13 -1015 -16 -481 -4 -956 -10 -1055 -14
l-180 -7 -80 -39 c-44 -22 -84 -40 -90 -40 -5 0 -12 -2 -15 -6 -3 -3 -22 -13
-43 -23 -47 -22 -43 -33 4 -12 116 50 131 54 161 42 l29 -11 -28 -9 c-15 -5
-41 -18 -56 -29 -16 -10 -31 -17 -34 -14 -2 3 -24 -5 -48 -19 -24 -13 -51 -24
-59 -24 -8 0 -30 -6 -48 -14 -47 -19 -109 -39 -135 -42 -12 -1 -38 -8 -58 -14
-50 -17 -66 0 -28 30 21 17 23 21 8 17 -68 -19 -401 -28 -457 -12 -20 5 -21 4
-5 -5 20 -13 23 -50 5 -50 -10 0 -10 -2 -1 -8 6 -4 11 -28 11 -52 0 -41 137
-490 191 -628 l19 -47 109 0 109 0 -43 55 c-80 105 -140 350 -119 491 9 59 62
119 105 119 38 0 115 18 159 36 18 8 44 14 58 14 14 0 37 6 53 14 15 8 36 13
47 12 10 -2 32 5 49 16 16 10 39 18 51 18 11 0 31 12 45 26 l24 27 -30 -19
c-36 -24 -88 -43 -140 -54 -38 -7 -53 -12 -135 -40 -19 -7 -50 -14 -67 -16
-18 -2 -41 -8 -52 -13 -17 -9 -81 -11 -81 -3 0 2 9 17 21 33 15 22 26 28 40
24 21 -7 96 8 166 32 24 8 47 12 52 9 5 -3 14 1 21 9 7 8 28 17 49 21 20 4 50
15 67 25 17 11 39 19 49 19 9 0 29 8 43 19 36 24 99 36 118 20 19 -16 18 -29
-3 -29 -22 0 -87 -39 -79 -47 3 -3 14 1 24 10 9 9 37 20 62 26 40 9 47 8 68
-12 34 -31 133 -202 155 -267 13 -36 19 -84 20 -140 1 -151 -39 -262 -130
-361 -31 -32 -49 -57 -42 -55 8 2 102 7 209 11 107 3 215 8 240 10 25 2 97 6
160 9 63 4 169 11 235 16 66 6 233 19 370 30 138 11 318 27 400 35 83 8 202
19 265 25 63 6 147 16 186 22 l72 10 -13 47 c-6 25 -20 61 -30 80 -39 77 5
233 88 308 80 71 205 108 283 83 46 -15 169 -94 203 -130 12 -14 30 -38 39
-55 16 -31 45 -222 36 -237 -8 -13 26 -10 136 12 56 11 125 23 155 26 50 6 56
10 121 82 49 54 84 82 127 103 113 53 183 48 275 -21 l50 -38 103 29 c138 40
247 86 288 121 21 19 41 28 52 25 14 -4 27 5 45 29 25 32 26 39 19 107 -13
134 -95 247 -337 464 -38 33 -68 66 -68 72 0 7 7 26 16 43 13 25 13 35 3 59
-14 35 -24 33 -10 -2 6 -17 4 -33 -6 -52 -12 -24 -17 -26 -29 -16 -9 7 -13 20
-11 28 3 9 10 31 15 48 6 18 7 35 3 37 -4 3 -8 -7 -9 -21 -4 -51 -27 -59 -37
-12 -5 20 -3 34 4 39 14 8 1 50 -20 67 -13 10 -179 64 -179 58z m60 -353 c0
-21 -49 -52 -88 -55 -23 -2 -42 0 -42 5 0 9 96 56 118 57 6 1 12 -3 12 -7z
m-382 -258 c64 -56 82 -89 82 -149 0 -88 -76 -149 -169 -138 -62 7 -96 26
-130 73 -38 53 -46 99 -27 164 20 66 41 78 181 95 6 0 34 -20 63 -45z m682
-44 c48 -31 94 -91 120 -158 26 -68 -59 -212 -126 -212 -96 0 -184 135 -184
283 0 78 5 92 41 112 35 21 93 11 149 -25z m-2156 15 c37 -16 45 -29 24 -39
-7 -3 -1 -3 13 0 21 4 30 -1 50 -28 45 -61 64 -117 64 -193 0 -63 -3 -76 -28
-108 -34 -45 -93 -77 -141 -77 -19 0 -62 14 -98 33 -60 31 -65 36 -106 117
-49 99 -51 145 -8 210 l26 40 78 2 c42 1 89 2 105 1 15 -1 27 4 27 9 0 7 -18
9 -49 5 -28 -3 -66 -3 -86 0 l-36 6 28 18 c35 22 89 24 137 4z m-824 -14 c0
-13 -4 -13 -88 -16 -34 -1 -59 2 -55 6 18 16 143 25 143 10z m115 -55 c118
-91 164 -271 101 -399 -23 -48 -36 -62 -79 -84 -92 -48 -188 -35 -288 40 -123
90 -158 332 -65 439 27 30 49 34 203 32 84 0 95 -3 128 -28z"/>
<path d="M13290 6160 c0 -5 4 -10 9 -10 6 0 13 5 16 10 3 6 -1 10 -9 10 -9 0
-16 -4 -16 -10z"/>
<path d="M13600 6141 c0 -6 4 -13 10 -16 6 -3 7 1 4 9 -7 18 -14 21 -14 7z"/>
<path d="M13920 6125 c0 -8 7 -15 15 -15 9 0 12 6 9 15 -4 8 -10 15 -15 15 -5
0 -9 -7 -9 -15z"/>
<path d="M14230 6116 c0 -2 7 -7 16 -10 8 -3 12 -2 9 4 -6 10 -25 14 -25 6z"/>
<path d="M14558 6103 c7 -3 16 -2 19 1 4 3 -2 6 -13 5 -11 0 -14 -3 -6 -6z"/>
<path d="M15160 6096 c0 -2 7 -7 16 -10 8 -3 12 -2 9 4 -6 10 -25 14 -25 6z"/>
<path d="M4815 5530 c3 -5 11 -10 16 -10 6 0 7 5 4 10 -3 6 -11 10 -16 10 -6
0 -7 -4 -4 -10z"/>
<path d="M12275 5470 c-3 -6 1 -7 9 -4 18 7 21 14 7 14 -6 0 -13 -4 -16 -10z"/>
<path d="M12210 5450 c-8 -5 -10 -10 -5 -10 6 0 17 5 25 10 8 5 11 10 5 10 -5
0 -17 -5 -25 -10z"/>
<path d="M5528 5383 c7 -3 16 -2 19 1 4 3 -2 6 -13 5 -11 0 -14 -3 -6 -6z"/>
<path d="M5905 5340 c3 -5 8 -10 11 -10 2 0 4 5 4 10 0 6 -5 10 -11 10 -5 0
-7 -4 -4 -10z"/>
<path d="M3705 5197 l7 -142 -39 -22 c-50 -29 -89 -66 -109 -106 -14 -26 -16
-52 -11 -158 3 -70 11 -138 18 -150 34 -65 182 -188 227 -190 10 0 12 -3 4 -6
-25 -10 59 -59 158 -93 90 -30 284 -75 410 -95 58 -9 177 -29 265 -45 88 -16
219 -36 290 -45 72 -9 209 -27 305 -40 218 -30 348 -43 470 -49 52 -2 129 -9
170 -15 88 -12 178 -19 350 -27 69 -3 170 -10 225 -15 55 -5 215 -21 355 -34
478 -47 778 -83 1285 -156 122 -17 639 -102 795 -130 30 -5 84 -15 120 -20 36
-6 126 -21 200 -34 434 -77 1100 -170 1430 -200 36 -3 131 -19 212 -36 193
-39 486 -69 673 -69 85 0 201 -7 265 -16 87 -12 141 -14 220 -8 58 4 211 8
340 8 227 1 238 2 312 28 93 32 124 36 263 39 61 1 151 8 200 15 50 8 164 14
255 14 99 0 203 6 260 16 52 8 183 19 290 24 125 6 231 17 295 30 56 12 155
23 225 25 152 5 186 10 320 41 58 14 152 27 210 30 120 6 328 37 392 58 71 23
169 44 238 51 133 13 354 61 503 109 23 8 81 26 130 41 48 14 99 33 115 41 15
7 32 14 38 14 11 0 61 25 111 55 18 11 34 28 37 38 2 11 10 16 16 12 6 -4 9
-1 8 7 -2 8 9 14 27 16 16 2 35 12 42 22 7 10 24 21 37 24 14 3 36 16 49 29
13 12 38 33 56 47 34 27 133 167 151 214 6 16 8 43 4 61 -3 18 1 55 10 85 19
63 19 60 6 60 -5 0 -10 -6 -10 -14 0 -28 -72 -85 -168 -134 -150 -76 -517
-195 -802 -259 -313 -70 -449 -95 -830 -154 -74 -11 -157 -24 -185 -29 -27 -5
-81 -12 -120 -15 -38 -4 -72 -8 -75 -10 -16 -10 -733 -89 -985 -109 -282 -23
-456 -35 -590 -41 -66 -3 -133 -7 -150 -10 -16 -2 -91 -5 -165 -6 -74 0 -150
-3 -169 -6 l-33 -6 4 -125 c2 -75 8 -127 14 -129 13 -4 -13 -132 -30 -149 -15
-16 -363 -25 -375 -10 -5 6 -12 29 -16 52 l-6 41 -46 -2 c-45 -1 -46 -2 -69
-53 l-23 -52 -186 0 -185 0 -10 26 c-6 14 -10 40 -10 59 0 31 -3 34 -40 40
-45 8 -60 2 -60 -24 0 -10 -5 -33 -11 -51 l-12 -32 -76 6 c-103 9 -379 34
-526 49 l-120 12 -6 30 c-13 61 -9 157 11 227 25 91 26 125 3 132 -47 13 -197
16 -271 6 -45 -6 -135 -28 -199 -50 -245 -81 -309 -91 -458 -71 -157 20 -641
96 -840 132 -33 6 -91 15 -130 20 -76 9 -223 34 -295 51 -25 5 -119 21 -210
35 -91 14 -190 29 -220 34 -30 6 -82 14 -115 18 -33 5 -136 20 -230 34 -93 13
-231 32 -305 41 -74 9 -162 21 -195 26 -33 5 -116 15 -185 21 -69 6 -136 13
-150 14 -14 1 -61 6 -105 9 -157 13 -197 24 -240 65 -48 44 -95 136 -129 251
-14 47 -44 148 -66 225 -23 77 -44 151 -48 165 -9 41 -52 98 -85 113 -38 18
-102 25 -307 32 -250 10 -437 24 -575 44 -170 26 -331 48 -430 62 -44 5 -109
14 -145 20 -36 5 -130 18 -210 29 -154 21 -310 44 -400 59 -140 24 -231 42
-300 57 -41 9 -93 20 -115 25 -22 4 -69 18 -105 29 -36 12 -78 25 -94 30 l-28
9 7 -142z m901 -102 c12 -47 83 -144 134 -182 53 -39 60 -63 23 -73 -45 -11
-113 -70 -144 -125 -43 -76 -61 -72 -107 18 -21 41 -57 91 -89 122 -30 30 -52
58 -49 64 4 6 26 19 50 30 32 14 54 34 80 72 20 30 36 59 36 66 0 13 28 32 47
33 7 0 15 -11 19 -25z m596 -66 c56 -29 122 -99 136 -147 29 -95 2 -209 -59
-252 -163 -117 -372 -18 -387 183 -8 100 42 184 132 223 48 20 130 17 178 -7z
m525 -75 c17 -23 29 -54 33 -82 5 -44 6 -45 53 -57 58 -15 102 -45 102 -71 0
-23 -58 -54 -116 -61 -30 -4 -39 -10 -34 -20 15 -42 -34 -127 -79 -135 -33 -5
-66 55 -66 118 l0 54 -36 0 c-61 0 -131 42 -119 71 10 26 70 59 108 59 23 0
37 5 37 13 0 48 54 147 80 147 5 0 21 -16 37 -36z m2280 -1080 c-3 -3 -12 -4
-19 -1 -8 3 -5 6 6 6 11 1 17 -2 13 -5z"/>
<path d="M6310 5301 c0 -5 7 -11 15 -15 8 -3 15 -1 15 3 0 5 -7 11 -15 15 -8
3 -15 1 -15 -3z"/>
<path d="M13970 4490 c0 -5 5 -10 10 -10 6 0 10 5 10 10 0 6 -4 10 -10 10 -5
0 -10 -4 -10 -10z"/>
<path d="M12730 4420 c0 -5 5 -10 11 -10 5 0 7 5 4 10 -3 6 -8 10 -11 10 -2 0
-4 -4 -4 -10z"/>
</g>
</svg>
